<svg width="453" height="138" viewBox="0 0 453 138" fill="none" xmlns="http://www.w3.org/2000/svg">
<path d="M58.1496 52.7901L67.7396 79.2101C67.7758 79.3053 67.7876 79.408 67.7739 79.509C67.7602 79.61 67.7215 79.7062 67.6613 79.7893C67.601 79.8723 67.5209 79.9395 67.4282 79.985C67.3355 80.0305 67.2329 80.0529 67.1296 80.0501C63.3396 79.9101 57.9896 79.1901 55.7596 81.5301C49.8596 87.7401 50.3596 98.2201 56.8396 103.71C57.9996 104.69 59.1496 105.207 60.2896 105.26C65.8229 105.507 71.3229 105.473 76.7896 105.16C77.0066 105.148 77.2217 105.21 77.4009 105.335C77.5801 105.459 77.7133 105.641 77.7796 105.85C78.9396 109.577 80.0729 112.817 81.1796 115.57C83.9496 122.44 92.3496 124.02 98.9796 122.44C107.59 120.39 111.9 110.81 108.31 102.95C101.51 88.1001 94.5096 69.5201 87.8896 54.5101C83.9429 45.5701 80.9262 38.3035 78.8396 32.7101C76.6396 26.8401 73.7896 22.4801 68.4796 20.5401C60.1796 17.5201 48.9896 17.4801 42.2796 23.9601C40.9396 25.2535 39.1196 28.6668 36.8196 34.2001C22.9596 67.5601 13.3762 90.7535 8.06958 103.78C4.33958 112.95 10.2196 121.85 19.8396 122.88C30.9096 124.06 33.8296 118.12 37.5096 107.93C48.2029 78.2701 54.8263 59.8901 57.3796 52.7901C57.4085 52.7112 57.4609 52.6431 57.5297 52.595C57.5986 52.5469 57.6806 52.5211 57.7646 52.5211C57.8486 52.5211 57.9306 52.5469 57.9994 52.595C58.0683 52.6431 58.1207 52.7112 58.1496 52.7901Z" stroke="#9599B8" stroke-width="2"/>
<path d="M150.459 68.5303C153.846 72.457 155.612 74.507 155.759 74.6803C157.852 77.1003 159.679 79.3203 161.239 81.3403C171.212 94.267 181.042 106.364 190.729 117.63C193.836 121.244 197.896 123.02 202.909 122.96C211.189 122.85 218.109 118.45 218.189 110C218.302 96.147 218.322 72.5703 218.249 39.2703C218.229 31.4503 218.779 25.8703 213.359 21.7103C208.909 18.2803 201.299 17.7803 196.389 20.1503C190.249 23.1103 188.699 28.0903 188.659 35.0503C188.626 39.5437 188.682 44.157 188.829 48.8903C189.079 57.4003 188.889 65.6103 188.699 72.3603C188.696 72.4279 188.673 72.4931 188.632 72.5469C188.591 72.6008 188.535 72.6408 188.471 72.6616C188.406 72.6823 188.337 72.6827 188.272 72.6628C188.208 72.643 188.151 72.6037 188.109 72.5503C176.196 57.4437 163.276 41.3937 149.349 24.4003C146.882 21.387 143.702 19.557 139.809 18.9103C129.659 17.2303 120.709 22.3403 120.869 33.5003C121.116 51.5403 121.126 68.3737 120.899 84.0003C120.779 92.107 120.896 100.7 121.249 109.78C121.609 119.07 128.909 124.11 137.749 122.95C143.242 122.23 147.002 119.734 149.029 115.46C149.922 113.58 150.306 110.397 150.179 105.91C149.879 95.1237 149.866 82.7003 150.139 68.6403C150.14 68.6034 150.152 68.5675 150.174 68.5376C150.195 68.5077 150.226 68.4852 150.261 68.4732C150.296 68.4612 150.333 68.4602 150.369 68.4705C150.404 68.4807 150.436 68.5016 150.459 68.5303Z" stroke="#9599B8" stroke-width="2"/>
<path d="M361.53 75.4703C361.539 75.4318 361.559 75.3967 361.587 75.369C361.616 75.3414 361.651 75.3223 361.69 75.3139C361.729 75.3056 361.769 75.3083 361.806 75.3218C361.843 75.3353 361.876 75.359 361.9 75.3903C365.427 80.2903 369.303 85.3136 373.53 90.4603C376.057 93.5403 379.26 95.1803 383.14 95.3803C388.92 95.6869 393.47 93.4903 396.79 88.7903C402.197 81.1503 407.39 74.1369 412.37 67.7503C412.402 67.7126 412.444 67.685 412.492 67.6714C412.54 67.6577 412.59 67.6586 412.636 67.6739C412.682 67.6893 412.721 67.7183 412.749 67.7571C412.777 67.7958 412.791 67.8423 412.79 67.8903C413.037 80.0569 413.013 92.8803 412.72 106.36C412.647 109.774 412.92 112.314 413.54 113.98C417.83 125.49 434.99 126.32 440.72 115.65C441.82 113.61 442.363 109.427 442.35 103.1C442.303 60.2669 442.293 38.1569 442.32 36.7703C442.42 32.1636 442.017 28.8836 441.11 26.9303C437.7 19.5203 430.42 17.9503 422.81 19.1003C418.29 19.7803 415.16 22.1303 412.27 26.1003C408.17 31.7336 403.423 37.9336 398.03 44.7003C393.97 49.8003 389.87 56.2303 385 61.9703C384.929 62.0551 384.839 62.1222 384.738 62.1663C384.636 62.2104 384.525 62.2303 384.414 62.2245C384.303 62.2187 384.194 62.1874 384.096 62.1329C383.999 62.0784 383.914 62.0022 383.85 61.9103C376.51 51.3303 368.94 42.1703 361.01 30.8003C356.25 23.9903 352.17 18.9603 343.27 18.8603C333.87 18.7536 328.47 22.5969 327.07 30.3903C326.89 31.4036 326.8 34.8103 326.8 40.6103C326.8 49.7903 327.14 56.9703 326.93 66.1603C326.71 75.8903 327.41 88.3803 326.89 100C326.683 104.72 326.803 108.387 327.25 111C328.85 120.26 336.76 124.37 345.5 122.69C351.453 121.544 355.123 118.097 356.51 112.35C356.59 112.038 356.63 111.719 356.63 111.4L356.77 84.6503C356.774 84.4363 356.849 84.2301 356.983 84.0649C357.117 83.8997 357.303 83.7853 357.51 83.7403C362.86 82.5403 360.75 79.1903 361.53 75.4703Z" stroke="#9599B8" stroke-width="2"/>
<path d="M269.43 57.96L264.34 58.67" stroke="#A2DBDD" stroke-width="2"/>
<path d="M264.34 58.6699L264.37 45.8199C264.372 45.6944 264.423 45.5749 264.511 45.4871C264.599 45.3992 264.717 45.35 264.84 45.3499C272.293 45.3633 283.726 45.3366 299.14 45.2699C305.24 45.2399 309.59 44.3699 312.24 39.2299C315.85 32.1999 313.61 22.7399 305.59 20.0399C304.49 19.6733 302.41 19.4933 299.35 19.4999C280.75 19.5666 264.286 19.5366 249.96 19.4099C242.64 19.3433 237.936 21.9366 235.85 27.1899C235.11 29.0299 234.753 34.2833 234.78 42.9499C234.853 66.0433 234.87 88.1333 234.83 109.22C234.816 115.033 236.97 118.977 241.29 121.05C243.53 122.117 247.416 122.65 252.95 122.65C279.523 122.617 293.433 122.603 294.68 122.61C301.94 122.67 307.56 123.05 311.53 117.9C314.68 113.82 315.04 107.4 312.72 102.98C310.573 98.88 306.926 96.8099 301.78 96.7699C288.82 96.6699 276.676 96.6466 265.35 96.6999C265.138 96.6999 264.934 96.6157 264.784 96.4656C264.634 96.3156 264.55 96.1121 264.55 95.8999V85.3599C264.55 85.2337 264.578 85.109 264.629 84.9939C264.681 84.8789 264.755 84.776 264.849 84.6921C264.942 84.6081 265.052 84.545 265.171 84.5067C265.29 84.4685 265.416 84.4559 265.54 84.4699C272.906 85.3033 280.083 85.5366 287.07 85.1699C295.27 84.7299 302.38 82.4899 306.13 75.7099C307.303 73.5966 307.786 72.1033 307.58 71.2299C305.72 63.4699 300.77 59.1733 292.73 58.3399C289.81 58.0333 285.103 57.6266 278.61 57.1199C275.47 56.8733 272.41 57.1533 269.43 57.9599" stroke="#9599B8" stroke-width="2"/>
<path d="M264.34 58.67C264.313 58.81 264.236 58.97 264.11 59.15C263.993 59.3185 263.829 59.4446 263.64 59.51C257.42 61.73 250.35 65.54 246.4 70.86C246.209 71.1123 246.11 71.4224 246.119 71.7388C246.128 72.0551 246.245 72.359 246.45 72.6C250.87 77.83 260.22 84.27 267.77 83.34C267.849 83.3304 267.923 83.2986 267.985 83.2483C268.046 83.198 268.092 83.1313 268.118 83.0559C268.143 82.9805 268.146 82.8995 268.127 82.8223C268.108 82.7452 268.067 82.675 268.01 82.62C262.623 77.3066 261.427 71.08 264.42 63.94C264.987 62.5733 266.656 60.58 269.43 57.96" stroke="#427A99" stroke-width="2"/>
<path d="M350.001 57.1064C350.001 56.832 349.946 56.5603 349.841 56.3069C349.735 56.0535 349.581 55.8233 349.386 55.6296C349.192 55.4358 348.961 55.2823 348.707 55.1777C348.454 55.0731 348.182 55.0195 347.907 55.02L347.587 55.0206C347.313 55.0211 347.041 55.0756 346.788 55.1811C346.534 55.2866 346.304 55.441 346.111 55.6354C345.917 55.8298 345.763 56.0605 345.659 56.3142C345.554 56.568 345.5 56.8399 345.501 57.1143L345.558 89.6942C345.558 89.9687 345.613 90.2404 345.718 90.4938C345.824 90.7472 345.978 90.9773 346.173 91.1711C346.367 91.3648 346.598 91.5183 346.851 91.6229C347.105 91.7275 347.377 91.7811 347.651 91.7806L347.971 91.78C348.246 91.7795 348.518 91.725 348.771 91.6195C349.024 91.514 349.255 91.3597 349.448 91.1653C349.642 90.9708 349.796 90.7402 349.9 90.4864C350.005 90.2327 350.058 89.9608 350.058 89.6863L350.001 57.1064Z" stroke="#998A7D" stroke-width="2"/>
<path d="M341.813 64.5159C341.816 64.0863 341.648 63.673 341.346 63.3671C341.045 63.0612 340.634 62.8876 340.204 62.8846L339.044 62.8765C338.615 62.8735 338.201 63.0413 337.895 63.343C337.589 63.6447 337.416 64.0556 337.413 64.4852L337.287 82.5047C337.284 82.9343 337.452 83.3476 337.754 83.6535C338.055 83.9594 338.466 84.133 338.896 84.136L340.056 84.1441C340.485 84.1471 340.899 83.9793 341.205 83.6776C341.51 83.3759 341.684 82.965 341.687 82.5354L341.813 64.5159Z" stroke="#998A7D" stroke-width="2"/>
<path d="M358.189 66.94C358.189 66.5528 358.036 66.1814 357.762 65.9076C357.488 65.6338 357.117 65.48 356.729 65.48H355.609C355.418 65.48 355.228 65.5177 355.051 65.5911C354.874 65.6645 354.713 65.772 354.577 65.9076C354.441 66.0432 354.334 66.2041 354.261 66.3813C354.187 66.5584 354.149 66.7482 354.149 66.94V79.3C354.149 79.4917 354.187 79.6816 354.261 79.8587C354.334 80.0358 354.441 80.1968 354.577 80.3324C354.713 80.4679 354.874 80.5755 355.051 80.6488C355.228 80.7222 355.418 80.76 355.609 80.76H356.729C357.117 80.76 357.488 80.6062 357.762 80.3324C358.036 80.0585 358.189 79.6872 358.189 79.3V66.94Z" stroke="#998A7D" stroke-width="2"/>
<path d="M333.677 70.0214C333.679 69.6554 333.536 69.3036 333.278 69.0435C333.021 68.7834 332.671 68.6361 332.305 68.6342L330.845 68.6265C330.663 68.6255 330.484 68.6603 330.316 68.7288C330.148 68.7972 329.996 68.8981 329.867 69.0256C329.738 69.1531 329.635 69.3047 329.565 69.4717C329.495 69.6388 329.458 69.8181 329.457 69.9993L329.421 76.9792C329.419 77.3452 329.563 77.6969 329.82 77.9571C330.077 78.2172 330.428 78.3645 330.794 78.3664L332.254 78.3741C332.435 78.375 332.614 78.3403 332.782 78.2718C332.95 78.2033 333.103 78.1025 333.232 77.975C333.36 77.8475 333.463 77.6959 333.533 77.5288C333.603 77.3618 333.64 77.1825 333.641 77.0013L333.677 70.0214Z" stroke="#998A7D" stroke-width="2"/>
<path d="M288.29 71.58C288.29 70.0974 287.998 68.6293 287.431 67.2595C286.863 65.8898 286.032 64.6452 284.983 63.5968C283.935 62.5484 282.69 61.7168 281.32 61.1494C279.951 60.5821 278.483 60.29 277 60.29C274.006 60.29 271.134 61.4795 269.017 63.5968C266.899 65.7141 265.71 68.5857 265.71 71.58C265.71 73.0627 266.002 74.5308 266.569 75.9005C267.137 77.2703 267.968 78.5149 269.017 79.5633C270.065 80.6116 271.31 81.4433 272.679 82.0106C274.049 82.578 275.517 82.87 277 82.87C278.483 82.87 279.951 82.578 281.32 82.0106C282.69 81.4433 283.935 80.6116 284.983 79.5633C286.032 78.5149 286.863 77.2703 287.431 75.9005C287.998 74.5308 288.29 73.0627 288.29 71.58Z" stroke="#998A7D" stroke-width="2"/>
<path d="M281.94 71.2301C281.94 69.9252 281.421 68.6738 280.499 67.7511C279.576 66.8284 278.324 66.3101 277.02 66.3101C275.715 66.3101 274.463 66.8284 273.541 67.7511C272.618 68.6738 272.1 69.9252 272.1 71.2301C272.1 72.5349 272.618 73.7864 273.541 74.709C274.463 75.6317 275.715 76.1501 277.02 76.1501C278.324 76.1501 279.576 75.6317 280.499 74.709C281.421 73.7864 281.94 72.5349 281.94 71.2301Z" stroke="#998A7D" stroke-width="2"/>
<path d="M58.1496 52.7901C58.1207 52.7112 58.0683 52.6431 57.9994 52.595C57.9306 52.5469 57.8486 52.5211 57.7646 52.5211C57.6806 52.5211 57.5986 52.5469 57.5297 52.595C57.4609 52.6431 57.4085 52.7112 57.3796 52.7901C54.8263 59.8901 48.2029 78.2701 37.5096 107.93C33.8296 118.12 30.9096 124.06 19.8396 122.88C10.2196 121.85 4.33958 112.95 8.06958 103.78C13.3762 90.7535 22.9596 67.5601 36.8196 34.2001C39.1196 28.6668 40.9396 25.2535 42.2796 23.9601C48.9896 17.4801 60.1796 17.5201 68.4796 20.5401C73.7896 22.4801 76.6396 26.8401 78.8396 32.7101C80.9262 38.3035 83.9429 45.5701 87.8896 54.5101C94.5096 69.5201 101.51 88.1001 108.31 102.95C111.9 110.81 107.59 120.39 98.9796 122.44C92.3496 124.02 83.9496 122.44 81.1796 115.57C80.0729 112.817 78.9396 109.577 77.7796 105.85C77.7133 105.641 77.5801 105.459 77.4009 105.335C77.2217 105.21 77.0066 105.148 76.7896 105.16C71.3229 105.473 65.8229 105.507 60.2896 105.26C59.1496 105.207 57.9996 104.69 56.8396 103.71C50.3596 98.2201 49.8596 87.7401 55.7596 81.5301C57.9896 79.1901 63.3396 79.9101 67.1296 80.0501C67.2329 80.0529 67.3355 80.0305 67.4282 79.985C67.5209 79.9395 67.601 79.8723 67.6613 79.7893C67.7215 79.7062 67.7602 79.61 67.7739 79.509C67.7876 79.408 67.7758 79.3053 67.7396 79.2101L58.1496 52.7901Z" fill="#353774"/>
<path d="M150.14 68.6398C149.867 82.6998 149.88 95.1232 150.18 105.91C150.307 110.397 149.923 113.58 149.03 115.46C147.003 119.733 143.243 122.23 137.75 122.95C128.91 124.11 121.61 119.07 121.25 109.78C120.897 100.7 120.78 92.1065 120.9 83.9998C121.127 68.3732 121.117 51.5398 120.87 33.4998C120.71 22.3398 129.66 17.2298 139.81 18.9098C143.703 19.5565 146.883 21.3865 149.35 24.3998C163.277 41.3932 176.197 57.4432 188.11 72.5499C188.152 72.6032 188.209 72.6425 188.273 72.6624C188.338 72.6822 188.407 72.6818 188.472 72.6611C188.536 72.6403 188.592 72.6003 188.633 72.5464C188.674 72.4926 188.697 72.4274 188.7 72.3598C188.89 65.6098 189.08 57.3998 188.83 48.8898C188.683 44.1565 188.627 39.5432 188.66 35.0498C188.7 28.0898 190.25 23.1098 196.39 20.1498C201.3 17.7798 208.91 18.2798 213.36 21.7098C218.78 25.8698 218.23 31.4498 218.25 39.2698C218.323 72.5698 218.303 96.1465 218.19 110C218.11 118.45 211.19 122.85 202.91 122.96C197.897 123.02 193.837 121.243 190.73 117.63C181.043 106.363 171.213 94.2665 161.24 81.3398C159.68 79.3198 157.853 77.0998 155.76 74.6798C155.613 74.5065 153.847 72.4565 150.46 68.5298C150.437 68.5011 150.405 68.4802 150.37 68.47C150.334 68.4598 150.297 68.4607 150.262 68.4727C150.227 68.4847 150.196 68.5072 150.174 68.5371C150.153 68.567 150.141 68.6029 150.14 68.6398Z" fill="#353774"/>
<path d="M361.53 75.4698C360.75 79.1898 362.86 82.5398 357.51 83.7398C357.303 83.7848 357.117 83.8992 356.983 84.0644C356.849 84.2296 356.774 84.4358 356.77 84.6498L356.63 111.4C356.63 111.718 356.59 112.038 356.51 112.35C355.123 118.096 351.453 121.543 345.5 122.69C336.76 124.37 328.85 120.26 327.25 111C326.803 108.386 326.683 104.72 326.89 99.9998C327.41 88.3798 326.71 75.8898 326.93 66.1598C327.14 56.9698 326.8 49.7898 326.8 40.6098C326.8 34.8098 326.89 31.4031 327.07 30.3898C328.47 22.5964 333.87 18.7531 343.27 18.8598C352.17 18.9598 356.25 23.9898 361.01 30.7998C368.94 42.1698 376.51 51.3298 383.85 61.9098C383.914 62.0017 383.999 62.0779 384.096 62.1324C384.194 62.1869 384.303 62.2182 384.414 62.224C384.525 62.2298 384.636 62.2099 384.738 62.1658C384.839 62.1217 384.929 62.0547 385 61.9698C389.87 56.2298 393.97 49.7998 398.03 44.6998C403.423 37.9331 408.17 31.7331 412.27 26.0998C415.16 22.1298 418.29 19.7798 422.81 19.0998C430.42 17.9498 437.7 19.5198 441.11 26.9298C442.017 28.8831 442.42 32.1631 442.32 36.7698C442.293 38.1564 442.303 60.2664 442.35 103.1C442.363 109.426 441.82 113.61 440.72 115.65C434.99 126.32 417.83 125.49 413.54 113.98C412.92 112.313 412.647 109.773 412.72 106.36C413.013 92.8798 413.037 80.0564 412.79 67.8898C412.791 67.8418 412.777 67.7953 412.749 67.7566C412.721 67.7178 412.682 67.6888 412.636 67.6734C412.59 67.6581 412.54 67.6572 412.492 67.6709C412.444 67.6845 412.402 67.7121 412.37 67.7498C407.39 74.1364 402.197 81.1498 396.79 88.7898C393.47 93.4898 388.92 95.6864 383.14 95.3798C379.26 95.1798 376.057 93.5398 373.53 90.4598C369.303 85.3131 365.427 80.2898 361.9 75.3898C361.876 75.3586 361.843 75.3348 361.806 75.3213C361.769 75.3078 361.729 75.3051 361.69 75.3134C361.651 75.3218 361.616 75.3409 361.587 75.3686C361.559 75.3962 361.539 75.4313 361.53 75.4698ZM350.002 57.1059C350.001 56.8314 349.947 56.5597 349.841 56.3063C349.736 56.0529 349.581 55.8228 349.387 55.629C349.192 55.4353 348.962 55.2818 348.708 55.1772C348.454 55.0726 348.182 55.019 347.908 55.0195L347.588 55.0201C347.313 55.0206 347.042 55.0751 346.788 55.1806C346.535 55.2861 346.305 55.4404 346.111 55.6348C345.917 55.8293 345.764 56.0599 345.659 56.3137C345.555 56.5674 345.501 56.8393 345.502 57.1138L345.558 89.6937C345.559 89.9682 345.613 90.2398 345.719 90.4932C345.824 90.7466 345.979 90.9768 346.173 91.1705C346.368 91.3643 346.598 91.5178 346.852 91.6224C347.106 91.727 347.378 91.7806 347.652 91.7801L347.972 91.7795C348.247 91.779 348.518 91.7245 348.772 91.619C349.025 91.5135 349.255 91.3591 349.449 91.1647C349.643 90.9703 349.796 90.7396 349.901 90.4859C350.005 90.2321 350.059 89.9602 350.058 89.6858L350.002 57.1059ZM341.813 64.5154C341.816 64.0857 341.648 63.6725 341.346 63.3666C341.045 63.0607 340.634 62.8871 340.204 62.8841L339.044 62.876C338.615 62.873 338.201 63.0408 337.895 63.3425C337.59 63.6442 337.416 64.055 337.413 64.4847L337.287 82.5042C337.284 82.9338 337.452 83.347 337.754 83.653C338.055 83.9589 338.466 84.1325 338.896 84.1355L340.056 84.1436C340.485 84.1466 340.899 83.9787 341.205 83.6771C341.511 83.3754 341.684 82.9645 341.687 82.5349L341.813 64.5154ZM358.19 66.9398C358.19 66.5526 358.036 66.1812 357.762 65.9074C357.489 65.6336 357.117 65.4798 356.73 65.4798H355.61C355.418 65.4798 355.228 65.5175 355.051 65.5909C354.874 65.6643 354.713 65.7718 354.578 65.9074C354.442 66.043 354.335 66.2039 354.261 66.3811C354.188 66.5582 354.15 66.7481 354.15 66.9398V79.2998C354.15 79.4915 354.188 79.6814 354.261 79.8585C354.335 80.0356 354.442 80.1966 354.578 80.3322C354.713 80.4677 354.874 80.5753 355.051 80.6486C355.228 80.722 355.418 80.7598 355.61 80.7598H356.73C357.117 80.7598 357.489 80.606 357.762 80.3322C358.036 80.0584 358.19 79.687 358.19 79.2998V66.9398ZM333.678 70.0209C333.68 69.6549 333.537 69.3031 333.279 69.043C333.022 68.7828 332.672 68.6356 332.306 68.6337L330.846 68.626C330.664 68.625 330.485 68.6598 330.317 68.7283C330.149 68.7967 329.996 68.8976 329.868 69.0251C329.739 69.1526 329.636 69.3042 329.566 69.4712C329.496 69.6383 329.459 69.8176 329.458 69.9988L329.422 76.9787C329.42 77.3447 329.563 77.6964 329.821 77.9566C330.078 78.2167 330.429 78.3639 330.795 78.3659L332.255 78.3736C332.436 78.3745 332.615 78.3398 332.783 78.2713C332.951 78.2028 333.104 78.102 333.232 77.9745C333.361 77.847 333.464 77.6954 333.534 77.5283C333.604 77.3613 333.641 77.182 333.642 77.0008L333.678 70.0209Z" fill="#353774"/>
<path d="M264.34 58.6699C264.313 58.8099 264.236 58.9699 264.11 59.1499C263.993 59.3185 263.829 59.4446 263.64 59.5099C257.42 61.7299 250.35 65.5399 246.4 70.8599C246.209 71.1123 246.11 71.4223 246.119 71.7387C246.128 72.0551 246.245 72.3589 246.45 72.5999C250.87 77.8299 260.22 84.2699 267.77 83.3399C267.849 83.3303 267.923 83.2985 267.985 83.2483C268.046 83.198 268.092 83.1312 268.117 83.0558C268.143 82.9804 268.146 82.8995 268.127 82.8223C268.108 82.7451 268.067 82.675 268.01 82.6199C262.623 77.3066 261.426 71.0799 264.42 63.9399C264.986 62.5733 266.656 60.5799 269.43 57.9599C272.41 57.1533 275.47 56.8733 278.61 57.1199C285.103 57.6266 289.81 58.0333 292.73 58.3399C300.77 59.1733 305.72 63.4699 307.58 71.2299C307.786 72.1033 307.303 73.5966 306.13 75.7099C302.38 82.4899 295.27 84.7299 287.07 85.1699C280.083 85.5366 272.906 85.3033 265.54 84.4699C265.416 84.4559 265.29 84.4685 265.171 84.5067C265.052 84.545 264.942 84.6081 264.849 84.6921C264.755 84.776 264.681 84.8789 264.629 84.9939C264.578 85.109 264.55 85.2337 264.55 85.3599V95.8999C264.55 96.1121 264.634 96.3156 264.784 96.4656C264.934 96.6157 265.138 96.6999 265.35 96.6999C276.676 96.6466 288.82 96.6699 301.78 96.7699C306.926 96.8099 310.573 98.88 312.72 102.98C315.04 107.4 314.68 113.82 311.53 117.9C307.56 123.05 301.94 122.67 294.68 122.61C293.433 122.603 279.523 122.617 252.95 122.65C247.416 122.65 243.53 122.117 241.29 121.05C236.97 118.977 234.816 115.033 234.83 109.22C234.87 88.1333 234.853 66.0433 234.78 42.9499C234.753 34.2833 235.11 29.0299 235.85 27.1899C237.936 21.9366 242.64 19.3433 249.96 19.4099C264.286 19.5366 280.75 19.5666 299.35 19.4999C302.41 19.4933 304.49 19.6733 305.59 20.0399C313.61 22.7399 315.85 32.1999 312.24 39.2299C309.59 44.3699 305.24 45.2399 299.14 45.2699C283.726 45.3366 272.293 45.3633 264.84 45.3499C264.717 45.35 264.599 45.3992 264.511 45.4871C264.423 45.5749 264.372 45.6944 264.37 45.8199L264.34 58.6699ZM288.29 71.5799C288.29 70.0973 287.998 68.6292 287.43 67.2595C286.863 65.8897 286.031 64.6451 284.983 63.5967C283.935 62.5483 282.69 61.7167 281.32 61.1493C279.95 60.582 278.482 60.2899 277 60.2899C274.005 60.2899 271.134 61.4794 269.016 63.5967C266.899 65.714 265.71 68.5857 265.71 71.5799C265.71 73.0626 266.002 74.5307 266.569 75.9004C267.136 77.2702 267.968 78.5148 269.016 79.5632C270.065 80.6116 271.309 81.4432 272.679 82.0105C274.049 82.5779 275.517 82.8699 277 82.8699C278.482 82.8699 279.95 82.5779 281.32 82.0105C282.69 81.4432 283.935 80.6116 284.983 79.5632C286.031 78.5148 286.863 77.2702 287.43 75.9004C287.998 74.5307 288.29 73.0626 288.29 71.5799Z" fill="#353774"/>
<path d="M347.908 55.0197L347.588 55.0203C346.434 55.0223 345.5 55.9596 345.502 57.1139L345.559 89.6939C345.561 90.8481 346.498 91.7822 347.652 91.7802L347.972 91.7797C349.126 91.7776 350.061 90.8403 350.059 89.686L350.002 57.1061C350 55.9518 349.062 55.0177 347.908 55.0197Z" fill="#FDDC85"/>
<path d="M269.43 57.96C266.656 60.58 264.987 62.5733 264.42 63.94C261.427 71.08 262.623 77.3066 268.01 82.62C268.067 82.675 268.108 82.7452 268.127 82.8223C268.146 82.8995 268.143 82.9805 268.118 83.0559C268.092 83.1313 268.046 83.198 267.985 83.2483C267.923 83.2986 267.849 83.3304 267.77 83.34C260.22 84.27 250.87 77.83 246.45 72.6C246.245 72.359 246.128 72.0551 246.119 71.7388C246.11 71.4224 246.209 71.1123 246.4 70.86C250.35 65.54 257.42 61.73 263.64 59.51C263.829 59.4446 263.993 59.3185 264.11 59.15C264.236 58.97 264.313 58.81 264.34 58.67L269.43 57.96Z" fill="#4FBCBD"/>
<path d="M288.29 71.58C288.29 73.0627 287.998 74.5308 287.431 75.9005C286.863 77.2703 286.032 78.5149 284.983 79.5633C283.935 80.6116 282.69 81.4433 281.32 82.0106C279.951 82.578 278.483 82.87 277 82.87C275.517 82.87 274.049 82.578 272.679 82.0106C271.31 81.4433 270.065 80.6116 269.017 79.5633C267.968 78.5149 267.137 77.2703 266.569 75.9005C266.002 74.5308 265.71 73.0627 265.71 71.58C265.71 68.5857 266.899 65.7141 269.017 63.5968C271.134 61.4795 274.006 60.29 277 60.29C278.483 60.29 279.951 60.5821 281.32 61.1494C282.69 61.7168 283.935 62.5484 284.983 63.5968C286.032 64.6452 286.863 65.8898 287.431 67.2595C287.998 68.6293 288.29 70.0974 288.29 71.58ZM281.94 71.23C281.94 69.9252 281.422 68.6738 280.499 67.7511C279.576 66.8284 278.325 66.31 277.02 66.31C275.715 66.31 274.464 66.8284 273.541 67.7511C272.618 68.6738 272.1 69.9252 272.1 71.23C272.1 72.5349 272.618 73.7863 273.541 74.709C274.464 75.6317 275.715 76.15 277.02 76.15C278.325 76.15 279.576 75.6317 280.499 74.709C281.422 73.7863 281.94 72.5349 281.94 71.23Z" fill="#FDDC85"/>
<path d="M340.204 62.8842L339.044 62.8761C338.149 62.8698 337.419 63.59 337.413 64.4847L337.287 82.5043C337.28 83.3989 338.001 84.1293 338.895 84.1355L340.055 84.1436C340.95 84.1499 341.68 83.4297 341.687 82.535L341.812 64.5154C341.819 63.6207 341.098 62.8904 340.204 62.8842Z" fill="#FDDC85"/>
<path d="M356.73 65.48H355.61C354.804 65.48 354.15 66.1336 354.15 66.94V79.3C354.15 80.1063 354.804 80.76 355.61 80.76H356.73C357.537 80.76 358.19 80.1063 358.19 79.3V66.94C358.19 66.1336 357.537 65.48 356.73 65.48Z" fill="#FDDC85"/>
<path d="M277.02 76.1501C279.737 76.1501 281.94 73.9473 281.94 71.2301C281.94 68.5128 279.737 66.3101 277.02 66.3101C274.302 66.3101 272.1 68.5128 272.1 71.2301C272.1 73.9473 274.302 76.1501 277.02 76.1501Z" fill="#353774"/>
<path d="M332.306 68.634L330.846 68.6264C330.084 68.6224 329.463 69.237 329.459 69.9991L329.422 76.979C329.418 77.7412 330.033 78.3622 330.795 78.3662L332.255 78.3739C333.017 78.3779 333.638 77.7633 333.642 77.0011L333.679 70.0212C333.683 69.2591 333.068 68.638 332.306 68.634Z" fill="#FDDC85"/>
</svg>
